<?xml version="1.0" encoding="UTF-8" standalone="no"?>
<svg width="1024" height="1024" shape-rendering="geometricPrecision" text-rendering="geometricPrecision"
    image-rendering="optimizeQuality" fill-rule="evenodd" clip-rule="evenodd" version="1.1" id="svg13"
    xmlns="http://www.w3.org/2000/svg" xmlns:svg="http://www.w3.org/2000/svg">
    <defs id="defs13" />
    <path fill="#512bd4"
        d="m 217.5,-0.5 h 588 c 89.266,11.529 154.433,57.196 195.5,137 11.92,25.9 19.42,52.9 22.5,81 v 588 c -11.53,89.266 -57.196,154.433 -137,195.5 -25.9,11.92 -52.9,19.42 -81,22.5 h -588 C 128.234,1011.97 63.067,966.304 22,886.5 10.083,860.6 2.583,833.6 -0.5,805.5 v -588 C 11.029,128.234 56.696,63.067 136.5,22 162.4,10.083 189.4,2.583 217.5,-0.5 Z"
        id="path1" />
    <path fill="#fefefe"
        d="m 452.5,347.5 v 322 h -58 a 44602.353,44602.353 0 0 0 -152.5,-236 365.497,365.497 0 0 1 -10,-19 c 0.489,85.292 0.656,170.625 0.5,256 h -51 v -323 a 985.248,985.248 0 0 1 62.5,1 48977.864,48977.864 0 0 1 160,251 11115.12,11115.12 0 0 1 -1.5,-252 z"
        id="path2" />
    <path fill="#d2c9f3" d="m 452.5,347.5 a 26088.594,26088.594 0 0 1 1,323 c -19.84,0.33 -39.507,-0.003 -59,-1 h 58 z"
        id="path3" />
    <path fill="#d2caf3" d="m 524.5,347.5 v 322 h 179 v 1 h -180 c -0.333,-107.835 10e-4,-215.501 1,-323 z"
        id="path4" />
    <path fill="#fefefe"
        d="m 524.5,347.5 h 172 v 45 h -120 a 2117.57,2117.57 0 0 0 1,92 h 110 v 45 h -110 a 2304.214,2304.214 0 0 0 -1,96 h 127 v 44 h -179 z m 435,45 h -92 v 278 h -53 v -277 h -92 v -46 h 237 z"
        id="path5" />
    <path fill="#a795ea" d="m 696.5,392.5 a 3539.447,3539.447 0 0 1 -119,1 v 91 a 2117.57,2117.57 0 0 1 -1,-92 z"
        id="path6" />
    <path fill="#856ae1" d="m 959.5,392.5 a 2071.736,2071.736 0 0 1 -91,1 c 0.333,92.502 -10e-4,184.835 -1,277 v -278 z"
        id="path7" />
    <path fill="#a795ea"
        d="m 577.5,529.5 v 95 h 127 a 529.493,529.493 0 0 1 -1,46 v -1 -44 h -127 c -0.332,-32.171 0.002,-64.171 1,-96 z"
        id="path8" />
    <path fill="#fcfcfe"
        d="m 88.5,614.5 c 19.285,-1.785 32.451,6.215 39.5,24 1.4,18.953 -7.1,31.12 -25.5,36.5 -19.218,2.422 -32.052,-5.412 -38.5,-23.5 -1.836,-19.002 6.33,-31.335 24.5,-37 z"
        id="path9" />
    <path fill="#fdfdfe"
        d="m 455.5,708.5 c 0.327,9.515 -0.006,18.848 -1,28 -16.555,-7.526 -33.889,-10.026 -52,-7.5 -22.571,7.745 -34.238,23.578 -35,47.5 2.619,40.478 23.619,55.811 63,46 a 225.771,225.771 0 0 0 1,-30 h -30 v -25 h 61 v 73 c -20.928,9.587 -42.928,13.087 -66,10.5 -34.57,-4.569 -54.736,-24.069 -60.5,-58.5 -5.236,-40.043 10.264,-68.543 46.5,-85.5 a 249.034,249.034 0 0 1 15,-4 289.106,289.106 0 0 1 34,0 104.676,104.676 0 0 1 24,5.5 z"
        id="path10" />
    <path fill="#fefdfe"
        d="m 489.5,704.5 h 31 c -0.167,31.002 0,62.002 0.5,93 3.949,23.609 17.449,32.109 40.5,25.5 9.513,-4.833 14.68,-12.667 15.5,-23.5 0.5,-31.665 0.667,-63.332 0.5,-95 h 31 c 0.167,30.335 0,60.668 -0.5,91 -2.813,38.002 -23.313,56.669 -61.5,56 -34.693,-0.52 -53.526,-18.187 -56.5,-53 -0.5,-31.332 -0.667,-62.665 -0.5,-94 z"
        id="path11" />
    <path fill="#fdfdfe" d="m 640.5,704.5 h 31 v 145 h -31 z" id="path12" />
    <path fill="#ccc1f2"
        d="m 455.5,708.5 c 1.323,9.508 1.323,19.175 0,29 -0.607,-0.124 -0.94,-0.457 -1,-1 0.994,-9.152 1.327,-18.485 1,-28 z"
        id="path13" />
</svg>